<?xml version="1.0" encoding="UTF-8" standalone="no"?>
        <svg 
    viewBox="3.1494140625 -86.97509765625 448.828125 57.82470703125"
    width="445.6787109375"
    height="144.7998046875"
   xmlns="http://www.w3.org/2000/svg"
   xmlns:svg="http://www.w3.org/2000/svg">
   <path d="M58.52-53.10L58.52-53.10L87.89-50.83Q87.67-49.29 86.54-48.23Q85.40-47.17 82.76-46.80L82.76-46.80Q82.32-43.43 81.85-40.17Q81.37-36.91 80.57-33.76L80.57-33.76L98.22-33.76L98.22-58.23L38.53-58.23L38.53-50.24Q38.53-49.58 35.85-48.41Q33.18-47.24 29.22-46.25Q25.27-45.26 21.46-45.26L21.46-45.26L17.58-45.26L17.58-112.50L42.77-110.23Q42.55-109.13 41.75-108.22Q40.94-107.30 38.53-106.93L38.53-106.93L38.53-62.40L96.75-62.40L106.49-72.58L125.54-58.37Q124.88-57.42 123.41-56.62Q121.95-55.81 119.53-55.37L119.53-55.37L119.53-33.76L120.12-33.76L130.37-48.27Q130.37-48.27 132.24-46.66Q134.11-45.04 136.96-42.52Q139.82-39.99 142.86-37.17Q145.90-34.35 148.32-31.93L148.32-31.93Q147.95-29.52 144.14-29.52L144.14-29.52L84.01-29.52Q90.09-21.24 99.94-16.66Q109.79-12.08 121.91-10.14Q134.03-8.20 146.85-7.62L146.85-7.62L147.00-6.01Q140.84-3.88 137.00 1.32Q133.15 6.52 131.69 14.28L131.69 14.28Q118.95 10.77 109.09 5.60Q99.24 0.44 92.18-7.95Q85.11-16.33 80.86-29.52L80.86-29.52L79.47-29.52Q77.27-21.90 72.69-15.01Q68.12-8.13 59.73-2.38Q51.34 3.37 37.72 7.69Q24.10 12.01 3.74 14.58L3.74 14.58L3.15 12.74Q20.95 8.35 31.68 1.90Q42.41-4.54 47.97-12.52Q53.54-20.51 55.81-29.52L55.81-29.52L4.61-29.52L3.44-33.76L56.69-33.76Q57.57-38.38 57.97-43.25Q58.37-48.12 58.52-53.10ZM104.08-85.62L104.08-111.62L69.73-111.62L69.73-85.62L104.08-85.62ZM48.93-70.17L48.93-115.80L48.93-124.07L70.68-115.80L102.61-115.80L111.91-125.98L131.40-111.47Q130.74-110.52 129.24-109.61Q127.73-108.69 125.39-108.18L125.39-108.18L125.39-77.27Q125.32-76.76 122.35-75.70Q119.38-74.63 115.32-73.75Q111.25-72.88 107.89-72.88L107.89-72.88L104.08-72.88L104.08-81.45L69.73-81.45L69.73-76.46Q69.73-75.59 67.05-74.08Q64.38-72.58 60.28-71.37Q56.18-70.17 51.93-70.17L51.93-70.17L48.93-70.17ZM164.72-124.37L165.75-125.24Q177.17-125.39 183.95-123.01Q190.72-120.63 193.69-116.97Q196.66-113.31 196.55-109.50Q196.44-105.69 194.02-102.83Q191.60-99.98 187.57-99.28Q183.54-98.58 178.78-101.22L178.78-101.22Q177.03-107.52 172.89-113.85Q168.75-120.19 164.72-124.37L164.72-124.37ZM153.00-92.29L154.03-93.02Q165.01-92.50 171.28-89.79Q177.54-87.08 179.99-83.35Q182.45-79.61 181.97-75.95Q181.49-72.29 178.82-69.73Q176.15-67.16 172.12-66.83Q168.09-66.50 163.62-69.58L163.62-69.58Q162.89-75.81 159.74-81.96Q156.59-88.11 153.00-92.29L153.00-92.29ZM218.41-125.68L219.29-126.93Q232.10-129.20 240.60-128.03Q249.10-126.86 253.82-123.52Q258.54-120.19 259.97-116.05Q261.40-111.91 260.05-108.25Q258.69-104.59 255.03-102.69Q251.37-100.78 246.02-102.03L246.02-102.03Q242.80-106.27 238.04-110.74Q233.28-115.21 228.08-119.13Q222.88-123.05 218.41-125.68L218.41-125.68ZM192.48-63.13L191.09-67.38L206.40-67.38L216.14-77.42L232.62-63.87L232.62-90.45L206.69-90.45L205.37-94.63L231.15-94.63L240.60-105.47L260.23-90.31Q259.50-89.28 258.07-88.44Q256.64-87.60 254.22-87.01L254.22-87.01L254.22-85.77Q255.62-77.78 257.63-71.01Q259.64-64.23 262.21-58.37L262.21-58.37Q264.92-63.43 267.48-69.18Q270.04-74.93 272.13-80.31Q274.22-85.69 275.39-89.72L275.39-89.72L298.17-75.29Q297.73-74.19 296.45-73.61Q295.17-73.02 292.53-73.54L292.53-73.54Q286.89-69.14 279.46-63.90Q272.02-58.67 264.18-54.27L264.18-54.27Q271.00-40.58 280.37-32.30Q289.75-24.02 299.56-19.04L299.56-19.04L298.83-17.58Q292.16-15.97 287.40-10.25Q282.64-4.54 280.52 3.30L280.52 3.30Q272.61-6.01 267.44-16.74Q262.28-27.47 259.17-41.75Q256.05-56.03 254.22-76.03L254.22-76.03L254.22-8.28Q254.22-1.46 252.39 3.26Q250.56 7.98 244.74 10.77Q238.92 13.55 227.12 14.58L227.12 14.58Q226.68 9.74 225.77 6.15Q224.85 2.56 222.73 0.44L222.73 0.44Q220.75-1.83 217.64-3.52Q214.53-5.20 207.93-6.30L207.93-6.30L207.93-8.13Q207.93-8.13 210.68-7.95Q213.43-7.76 217.31-7.58Q221.19-7.40 224.63-7.21Q228.08-7.03 229.47-7.03L229.47-7.03Q231.45-7.03 232.03-7.87Q232.62-8.72 232.62-10.18L232.62-10.18L232.62-62.55Q231.67-61.16 228.00-60.72L228.00-60.72Q225.66-49.51 220.83-38.27Q215.99-27.03 208.01-16.99Q200.02-6.96 188.23 0.59L188.23 0.59Q188.01 6.59 183.98 10.36Q179.96 14.14 173.36 14.14L173.36 14.14Q170.51 14.14 167.54 12.45Q164.58 10.77 163.33 6.30L163.33 6.30Q164.94-1.39 165.27-8.42Q165.60-15.45 164.79-20.32Q163.99-25.20 162.16-26.37L162.16-26.37Q158.94-28.71 154.03-28.93L154.03-28.93L154.03-31.64Q154.03-31.64 155.46-31.64Q156.88-31.64 158.57-31.64Q160.25-31.64 161.13-31.64L161.13-31.64Q163.04-31.64 163.88-32.04Q164.72-32.45 166.04-34.79L166.04-34.79Q166.99-36.33 167.80-37.76Q168.60-39.18 169.81-41.60Q171.02-44.02 173.14-48.41Q175.27-52.81 178.71-60.24Q182.15-67.68 187.46-79.06Q192.77-90.45 200.39-106.93L200.39-106.93L202.66-106.35Q200.76-100.49 198.49-93.02Q196.22-85.55 193.87-77.67Q191.53-69.80 189.48-62.55Q187.43-55.30 185.89-49.73Q184.35-44.17 183.76-41.38L183.76-41.38Q182.74-37.21 181.97-33.11Q181.20-29.00 181.20-25.93L181.20-25.93Q181.35-22.05 182.92-18.90Q184.50-15.75 186.11-12.12Q187.72-8.50 188.09-3.15L188.09-3.15Q193.95-11.28 197.90-21.28Q201.86-31.27 204.20-42.04Q206.54-52.81 207.57-63.13L207.57-63.13L192.48-63.13ZM324.32-71.12L323.07-75.29L340.94-75.29L348.27-84.01Q348.27-84.01 350.61-82.32Q352.95-80.64 356.14-78.19Q359.33-75.73 361.96-73.54L361.96-73.54Q361.52-71.12 358.08-71.12L358.08-71.12L324.32-71.12ZM388.92-71.12L387.74-75.29L407.67-75.29L415.36-84.45Q415.36-84.45 417.77-82.69Q420.19-80.93 423.56-78.37Q426.93-75.81 429.57-73.54L429.57-73.54Q429.20-71.12 425.68-71.12L425.68-71.12L388.92-71.12ZM316.33-17.43L316.33-17.43Q318.46-17.43 319.41-17.72Q320.36-18.02 321.90-19.78L321.90-19.78Q323.22-21.24 324.35-22.52Q325.49-23.80 327.65-26.51Q329.81-29.22 334.17-34.72Q338.53-40.21 346.36-50.10L346.36-50.10L348.49-49.37Q347.24-46.51 345.45-42.59Q343.65-38.67 341.78-34.64Q339.92-30.62 338.45-27.36Q336.99-24.10 336.47-22.63L336.47-22.63Q335.67-20.29 335.01-17.61Q334.35-14.94 334.35-13.04L334.35-13.04Q334.42-10.33 336.00-8.13Q337.57-5.93 339.07-3.11Q340.58-0.29 340.36 4.17L340.36 4.17Q340.14 8.35 336.55 11.13Q332.96 13.92 325.93 13.92L325.93 13.92Q323.22 13.92 320.84 12.30Q318.46 10.69 317.58 7.76L317.58 7.76Q318.90-0.07 318.49-5.82Q318.09-11.57 315.75-12.89L315.75-12.89Q314.28-13.70 312.78-14.17Q311.28-14.65 309.16-14.87L309.16-14.87L309.16-17.43Q309.16-17.43 310.58-17.43Q312.01-17.43 313.73-17.43Q315.45-17.43 316.33-17.43ZM317.58-65.41L318.60-66.43Q327.61-67.53 333.11-66.21Q338.60-64.89 341.09-62.22Q343.58-59.55 343.62-56.51Q343.65-53.47 341.82-51.09Q339.99-48.71 336.80-47.94Q333.62-47.17 329.74-49.07L329.74-49.07Q328.34-53.54 324.76-58.19Q321.17-62.84 317.58-65.41L317.58-65.41ZM305.27-48.27L306.30-49.37Q315.31-50.46 320.69-49.11Q326.07-47.75 328.45-45.04Q330.83-42.33 330.73-39.29Q330.62-36.25 328.67-33.87Q326.73-31.49 323.47-30.80Q320.21-30.10 316.33-32.23L316.33-32.23Q315.53-36.84 312.30-41.38Q309.08-45.92 305.27-48.27L305.27-48.27ZM353.25 6.74L353.25-37.65L353.25-45.63L373.83-37.65L383.28-37.65L383.28-49.80L350.24-49.80L349.07-53.98L383.28-53.98L383.28-65.26Q381.23-64.45 377.38-63.57Q373.54-62.70 368.12-62.70L368.12-62.70L364.23-62.70L364.23-100.20L326.73-100.20Q327.61-93.90 326.22-89.43L326.22-89.43L340.94-89.43L348.12-97.78Q348.12-97.78 350.32-96.13Q352.51-94.48 355.59-92.14Q358.67-89.79 361.23-87.60L361.23-87.60Q360.57-85.18 357.28-85.18L357.28-85.18L327.17-85.18L326.07-88.92Q323.80-81.96 318.16-80.13L318.16-80.13Q313.84-78.66 309.74-80.46Q305.64-82.25 304.47-87.01L304.47-87.01Q303.59-91.70 306.23-94.78Q308.86-97.85 312.89-99.32L312.89-99.32Q316.19-100.56 318.90-103.67Q321.61-106.79 321.17-110.82L321.17-110.82L323.07-111.04Q324.83-107.30 325.63-104.37L325.63-104.37L364.23-104.37L364.23-114.92L319.63-114.92L318.46-119.09L406.49-119.09L416.09-130.22Q416.09-130.22 419.09-128.10Q422.09-125.98 426.23-122.97Q430.37-119.97 433.81-117.33L433.81-117.33Q433.15-114.92 429.57-114.92L429.57-114.92L385.47-114.92L385.47-104.37L422.39-104.37L431.98-114.18L448.83-98.22Q447.88-97.27 446.63-96.90Q445.39-96.53 443.12-96.31L443.12-96.31Q439.38-93.16 433.92-89.39Q428.47-85.62 423.78-83.28L423.78-83.28L422.39-84.16L422.53-85.18L422.09-85.18L389.43-85.18L388.18-89.43L405.32-89.43L412.65-97.92Q412.65-97.92 416.09-95.43Q419.53-92.94 423.12-90.01L423.12-90.01L423.93-100.20L385.47-100.20L385.47-66.72L384.89-66.28L408.03-64.53Q407.74-63.13 406.82-62.18Q405.91-61.23 403.20-60.72L403.20-60.72L403.20-53.98L418.21-53.98L427.37-65.26Q427.37-65.26 430.22-63.13Q433.08-61.01 436.96-57.97Q440.84-54.93 443.99-52.22L443.99-52.22Q443.55-49.80 439.97-49.80L439.97-49.80L402.76-49.80L408.03-49.37Q407.74-47.90 406.82-46.91Q405.91-45.92 403.20-45.48L403.20-45.48L403.20-37.65L412.65-37.65L421.07-46.95L439.38-33.62Q438.65-32.67 437.37-31.86Q436.08-31.05 433.96-30.62L433.96-30.62L433.96-12.16Q433.96-6.52 432.57-2.78Q431.18 0.95 426.67 3.11Q422.17 5.27 412.79 6.01L412.79 6.01Q412.72 2.27 412.46-0.48Q412.21-3.22 411.47-4.83L411.47-4.83Q410.67-6.30 409.28-7.62Q407.89-8.94 404.37-9.59L404.37-9.59L404.37-11.43Q404.37-11.43 405.87-11.35Q407.37-11.28 409.20-11.21Q411.04-11.13 412.06-11.13L412.06-11.13Q413.38-11.13 413.78-11.72Q414.18-12.30 414.18-13.33L414.18-13.33L414.18-33.47L403.20-33.47L403.20 9.59Q403.20 10.33 400.67 11.46Q398.14 12.60 394.37 13.51Q390.60 14.43 386.87 14.43L386.87 14.43L383.28 14.43L383.28-33.47L372.73-33.47L372.73 0.88Q372.73 1.76 370.24 3.15Q367.75 4.54 363.87 5.64Q359.99 6.74 355.96 6.74L355.96 6.74L353.25 6.74Z"/>
    </svg>
        